<mxfile host="app.diagrams.net" modified="2023-08-26T13:42:01.758Z" agent="Mozilla/5.0 (Windows NT 10.0; Win64; x64) AppleWebKit/537.36 (KHTML, like Gecko) Chrome/97.0.4692.71 Safari/537.36" version="21.6.9" etag="6RcT35XmMUjpNYsIFcFj" type="github">
  <diagram name="第 1 页" id="Atba4np84K2GLx_7ClSU">
    <mxGraphModel>
      <root>
        <mxCell id="0" />
        <mxCell id="1" parent="0" />
      </root>
    </mxGraphModel>
  </diagram>
</mxfile>
